PathFileType	4	(X/Y/Z)	50_2_93_p0_0-295_filt_butterworth.trc
DataRate	CameraRate	NumFrames	NumMarkers	Units	OrigDataRate	OrigDataStartFrame	OrigNumFrames
42.0	42.0	6	27	m	42.0	110	295
Frame#	Time	RHip			RKnee			RAnkle			RBigToe			RSmallToe			RHeel			LHip			LKnee			LAnkle			LBigToe			LSmallToe			LHeel			Neck			Head			Nose			RShoulder			RElbow			RWrist			RThumb			RIndex			RPinky			LShoulder			LElbow			LWrist			LThumb			LIndex			LPinky			
		X1	Y1	Z1	X2	Y2	Z2	X3	Y3	Z3	X4	Y4	Z4	X5	Y5	Z5	X6	Y6	Z6	X7	Y7	Z7	X8	Y8	Z8	X9	Y9	Z9	X10	Y10	Z10	X11	Y11	Z11	X12	Y12	Z12	X13	Y13	Z13	X14	Y14	Z14	X15	Y15	Z15	X16	Y16	Z16	X17	Y17	Z17	X18	Y18	Z18	X19	Y19	Z19	X20	Y20	Z20	X21	Y21	Z21	X22	Y22	Z22	X23	Y23	Z23	X24	Y24	Z24	X25	Y25	Z25	X26	Y26	Z26	X27	Y27	Z27	
110	2.619047619047619	0.306065250197323	0.6604923365498685	0.5187346485674519	0.2876239647523273	0.822506497906135	0.9280092450192214	0.31028893913128536	0.9705520569657434	1.34364619667755	0.263661611728385	0.8627238743816241	1.423054967201999	0.33613622179755104	0.8388344964644433	1.4109771673708291	0.29041690096755374	1.0699694714728885	1.3907958322672855	0.11822924875170954	0.6825929060191404	0.506111615077928	0.1021236474158217	0.8458126187182053	0.9278870757498474	0.09232505635716276	1.0214948739651244	1.3441887569149977	0.09998990665739166	0.8766511007010318	1.4053035655143482	0.04315540108528082	0.8990254020776614	1.3996515190333239	0.11386499329140909	1.0729609946979475	1.402140474392991	0.21648646578897116	0.5412784664305685	-0.002644315575498638	0.21027762172915757	0.4578485778426955	-0.21650376504334648	0.15997574706293188	0.397058426711436	-0.08922755117609908	0.341721497324394	0.5468145773327489	0.10183050979367088	0.42856240656708433	0.5904689156823406	0.3611911673062792	0.41976627347602014	0.5891848573460816	0.6325440672030512	0.3531912248358434	0.5616442482134669	0.7439973841911667	0.3793453443654022	0.5626176318761612	0.7525727801811835	0.4157173646413727	0.5963185910468479	0.7528398757004123	0.07046204468172029	0.6221260396936805	0.0504539398580074	-0.024098715308000087	0.49468888882624323	0.27685386121105016	0.058819915779244954	0.4118265019417547	0.06957705233007205	0.07737660134998227	0.4088645933336326	7.585547814800745e-05	0.07282245607574568	0.38605635052181564	-0.04115832643404392	0.03903119152863188	0.3567223420111423	0.004961899434966031
111	2.642857142857143	0.30124925118909907	0.6679400709066488	0.5191455410815715	0.28569482084973885	0.8210783102454575	0.9287981265068557	0.3102404610890079	0.9705268033566665	1.3437657945102712	0.26367733604177107	0.8621833566378124	1.4233077107839995	0.3360697810384507	0.8386788444451776	1.410943728556684	0.29128252029262114	1.0700695974534695	1.392989096126147	0.11708407458201756	0.6823175359375633	0.5052043977843674	0.10119407256349922	0.8389278046970281	0.9272029343861743	0.09193625453754035	1.0224631174217862	1.3449907917430535	0.10012552460707233	0.8760775350983211	1.4051805715464178	0.043338169556407576	0.8997809933363302	1.398098279088757	0.11396371137133973	1.073512926013719	1.4020549507512872	0.21648363739294518	0.5398766347227022	0.0031378250097858097	0.21041762560526092	0.4584244944369986	-0.21521819112380147	0.1581201164302561	0.39617816480982315	-0.08645802758011568	0.3431703593272173	0.548295634382251	0.10517311024867548	0.4286005279066628	0.5910681481478098	0.3627537606749356	0.41784865570352114	0.5900470659936259	0.6324967149898785	0.3478683844624958	0.550482937425227	0.7438362152234217	0.37201176809535325	0.5516596187917648	0.7511924996274271	0.41391135266730056	0.6008487047622324	0.7552017517031842	0.07308088465144263	0.628434475717661	0.052151036498155334	-0.024251554820928077	0.505858906781212	0.2784253645621614	0.05125563929723373	0.4186180120691232	0.07366113094742302	0.07353115784782746	0.40839422184104623	8.865398176403489e-05	0.06894193842973848	0.3894781071810484	-0.03479475736029129	0.032067080655197595	0.3557340997154959	0.009976654069335279
112	2.6666666666666665	0.29602878267633964	0.6731984423894821	0.5194898262148957	0.28414789543550445	0.8162728319900442	0.9276480866988956	0.3102252536874268	0.9705035385682874	1.3438566334864575	0.26329182006181573	0.8610294667036172	1.4214008760324226	0.33476745868986885	0.8387210614174513	1.4109001243428898	0.2931146856226269	1.0700776197950823	1.3926268797842287	0.11616024015234525	0.6815092123381119	0.5047264629641917	0.09988863937540057	0.8376788027606533	0.9268839639892658	0.09095610919871663	1.0239567454224021	1.34836358855563	0.10000367940136885	0.8750863910028438	1.4049672532989432	0.0439624373592179	0.9001031115022999	1.3962608306658844	0.11388251040522679	1.0750328218767125	1.4027914481879478	0.21781319618627332	0.5396842073655906	0.0074642316167874015	0.210452717426538	0.4586012594252307	-0.2145214885491974	0.15875747254308442	0.3998558209914801	-0.08206292483663122	0.3462614110563692	0.5496253387440249	0.10805123912012786	0.4287673070928444	0.5923250007415275	0.36609959886059723	0.4170776609928256	0.5869872809592674	0.6311031234365416	0.3441862441544703	0.542085988948043	0.7417853180188008	0.36543971315847706	0.539951813571623	0.7495661523778212	0.41184447417999637	0.6014836994506654	0.756421962355051	0.07508683872708502	0.6330222190511013	0.05586715004902242	-0.026786761251017723	0.517223614248516	0.2783520589196866	0.036480653911513915	0.4290697144786243	0.07379646168003455	0.06665650708912509	0.4153428371110233	-0.00027273928309768617	0.06451785803467891	0.39475388701241776	-0.032820065734554704	0.02478864599686048	0.35789730656360896	0.011465207815678169
113	2.6904761904761907	0.2927848870843199	0.6737036846975633	0.5195106521057837	0.28099439731843334	0.8083372945974772	0.9262607685798874	0.3102827154634733	0.9705585679035309	1.3439064848829747	0.2630536847895684	0.8603193347891551	1.4188188346001247	0.3325971226917017	0.8389099451819626	1.4109020182426089	0.29430765312576834	1.0687281282444094	1.3923415128489225	0.1144467666230848	0.6810912232837278	0.5051774015463169	0.0987793988016632	0.8378105751098169	0.9267261987592739	0.0900324304636364	1.025628509376229	1.3542055841853615	0.09977525422021331	0.8746900882238493	1.4048087622847407	0.044227830422325774	0.9000489382365519	1.3977481980050368	0.11372741282422708	1.076636912268787	1.404712275099422	0.2198978340656401	0.5403693447277121	0.008673808088442881	0.21037233109563477	0.4580001622375968	-0.21437836362648383	0.1600467559880847	0.40620225781058145	-0.07926005060469213	0.34921935898321266	0.5503498436717225	0.10969914710811213	0.42888043041472357	0.5932323994483594	0.3684233992818835	0.41646239060020823	0.5818061994029359	0.6284066113160716	0.3409790355592156	0.5408643546249635	0.7396796709476561	0.35931031577675243	0.5284162989920266	0.7481933355352715	0.41044040357428624	0.6010076528859523	0.7562131902492489	0.07543615684568285	0.6338738069159194	0.06082032794566755	-0.03387636874359181	0.5283037011374764	0.2767588895199524	0.021821140898891395	0.4379883444189623	0.07019423182487636	0.05882540103741656	0.4326522072300675	-0.0013392710397735893	0.06044020605179108	0.40043457154606243	-0.03696354514154595	0.01681442569087793	0.36875420529587366	0.008032540770547124
114	2.7142857142857144	0.29163461712883904	0.6727002198591528	0.5193845903655792	0.27705468636246644	0.7995221794223513	0.9260000051850132	0.31037630343074246	0.9706742638294339	1.3439314293223636	0.2630437788527944	0.8599336719469322	1.4174388155056947	0.3312474695129092	0.8387758148047889	1.410795550799543	0.29438992486442817	1.0651049476851013	1.3941416785044054	0.11299669351505202	0.6813577488201485	0.5075785955072987	0.098443872433622	0.837409484592556	0.92664748451731	0.08975956959159109	1.025923106595665	1.3576042192416633	0.09967198030857614	0.8748406055473427	1.4048260212407826	0.043901088412228756	0.8998783675357955	1.4017296751742558	0.11356736691131765	1.0772181044600815	1.4063491201176472	0.22112071398287464	0.5405404951664269	0.008648657804420201	0.2104836270858208	0.45809686304068964	-0.2145262377562778	0.1605214448483577	0.41466909368100735	-0.07960889678169038	0.35043010025645116	0.5505205926874378	0.11017455524851619	0.42887841846073976	0.5931965983379222	0.36864927109923024	0.41358717506444725	0.5786363907073171	0.6266503562233116	0.33805524491101113	0.5486972432132948	0.739701731272631	0.35519118623679335	0.5225573864750538	0.7479342606443651	0.4097971753350303	0.6009510406060105	0.7545773331684003	0.07512837101720388	0.6333773856465452	0.06377893326006943	-0.0441249041715248	0.5366855073603075	0.2732310195047094	0.01273986262859103	0.44489167835154164	0.0655103036719148	0.05240076203558443	0.450915415338325	-0.0030623479324841277	0.05605217180451241	0.40876112267296894	-0.042936148773596146	0.010287107328919024	0.38957750884117925	0.0003596782830514796
115	2.738095238095238	0.2904754710390316	0.6721712644599382	0.5193885292250601	0.27414408995851225	0.7922073884389889	0.9258414185621769	0.31045533160726624	0.9707477370347031	1.3439256764985559	0.2631339284550287	0.859612995202123	1.4174315763862488	0.3311259118043119	0.8385582854048985	1.4106757771175364	0.294108740222291	1.0623828616473874	1.3965099553723432	0.11270454937521325	0.6811775316186544	0.5101317610726952	0.0984782654946724	0.8378593005232914	0.9268863005608727	0.09051576705337842	1.0254108298152678	1.3570510501631796	0.09966461230131107	0.874993188257708	1.4049374506161147	0.043537632617640175	0.8999489925543243	1.403172931711378	0.11341379026602041	1.0770809616566246	1.4067657239077782	0.22123870819005143	0.5403491467295676	0.00853579187494488	0.2113867723712508	0.4614047516289489	-0.21523006812443565	0.16051836647737106	0.42088480663994526	-0.08158773561612209	0.35040826742047704	0.5502733201658985	0.10935194121861855	0.42879135867549106	0.5928795917404819	0.3692376355270375	0.40905596389142546	0.5783314921841748	0.6268818879520508	0.3358279577130322	0.5587000217196979	0.7410229725150195	0.3523336277706001	0.5231751575104837	0.7483755169307412	0.40777049385313485	0.6009186103729495	0.7520983627570205	0.0749390496270354	0.6332053515112932	0.06394305746063532	-0.05402595805044439	0.544250945505929	0.26651057711061	0.007965689666143697	0.45097947679819755	0.061442922437674644	0.047603544883022694	0.4623057792532058	-0.005798019503541394	0.05068883548194357	0.4192317071864084	-0.046962793662701584	0.00691055553860012	0.41352172052261543	-0.009543253161136113
